<svg width="158" height="45" viewBox="0 0 158 45" fill="none" xmlns="http://www.w3.org/2000/svg">
<rect width="158" height="45" rx="4" fill="#DB3333"/>
<path d="M24.99 18.834H27.456C27.546 18.006 28.068 17.214 29.292 17.214C30.444 17.214 31.074 17.826 31.074 18.852C31.074 20.148 29.994 20.562 28.518 20.562H27.996V22.632H28.518C30.39 22.632 31.326 23.172 31.326 24.648C31.326 25.692 30.678 26.484 29.418 26.484C28.068 26.484 27.312 25.674 27.258 24.54H24.81C24.918 27.294 26.88 28.59 29.472 28.59C32.226 28.59 33.738 27.006 33.738 24.864C33.738 23.082 32.856 22.002 31.524 21.588V21.516C32.478 21.192 33.504 20.184 33.504 18.546C33.504 16.602 32.064 15.072 29.364 15.072C26.844 15.072 25.116 16.404 24.99 18.834ZM35.7294 21.768C35.7294 25.602 36.8814 28.464 40.5894 28.464C44.2974 28.464 45.4494 25.602 45.4494 21.768C45.4494 17.97 44.2974 15.126 40.5894 15.126C36.8814 15.126 35.7294 17.97 35.7294 21.768ZM42.9654 21.768C42.9654 24.108 42.7134 26.124 40.5894 26.124C38.4654 26.124 38.2134 24.108 38.2134 21.768C38.2134 19.518 38.4654 17.466 40.5894 17.466C42.7134 17.466 42.9654 19.518 42.9654 21.768ZM47.0781 18.6C47.0781 20.49 48.3021 21.534 49.9401 21.534C51.5781 21.534 52.8021 20.49 52.8021 18.6C52.8021 16.728 51.5781 15.684 49.9401 15.684C48.3021 15.684 47.0781 16.728 47.0781 18.6ZM49.9221 17.196C50.5521 17.196 50.9481 17.61 50.9481 18.6C50.9481 19.59 50.5521 20.022 49.9221 20.022C49.3101 20.022 48.9321 19.59 48.9321 18.6C48.9321 17.61 49.3101 17.196 49.9221 17.196ZM49.1121 28.5H51.5601L58.6341 15.9H56.1681L49.1121 28.5ZM54.9801 25.782C54.9801 27.69 56.2041 28.716 57.8421 28.716C59.4621 28.716 60.6681 27.69 60.6681 25.782C60.6681 23.892 59.4621 22.866 57.8421 22.866C56.2041 22.866 54.9801 23.892 54.9801 25.782ZM57.8241 24.378C58.4361 24.378 58.8321 24.792 58.8321 25.782C58.8321 26.79 58.4361 27.204 57.8241 27.204C57.1941 27.204 56.7981 26.79 56.7981 25.782C56.7981 24.792 57.1941 24.378 57.8241 24.378ZM74.2708 15.936H67.5208V28.5H74.2708V27.15H69.1588V22.83H73.7308V21.48H69.1588V17.286H74.2708V15.936ZM83.9673 28.5H85.5873V22.686C85.5873 19.86 83.8413 18.456 81.5553 18.456C80.2233 18.456 79.0353 19.014 78.3873 20.04V18.636H76.7493V28.5H78.3873V23.046C78.3873 20.922 79.5393 19.878 81.2133 19.878C82.8693 19.878 83.9673 20.904 83.9673 22.92V28.5ZM87.651 23.532C87.651 26.592 89.685 28.662 92.331 28.662C94.131 28.662 95.409 27.744 96.003 26.646V28.5H97.659V15.18H96.003V20.4C95.319 19.266 93.897 18.474 92.349 18.474C89.685 18.474 87.651 20.454 87.651 23.532ZM96.003 23.55C96.003 25.872 94.455 27.222 92.655 27.222C90.855 27.222 89.325 25.854 89.325 23.532C89.325 21.21 90.855 19.896 92.655 19.896C94.455 19.896 96.003 21.264 96.003 23.55ZM100.427 28.5H102.065V18.636H100.427V28.5ZM101.273 17.034C101.867 17.034 102.353 16.548 102.353 15.918C102.353 15.288 101.867 14.802 101.273 14.802C100.643 14.802 100.157 15.288 100.157 15.918C100.157 16.548 100.643 17.034 101.273 17.034ZM106.495 23.136C106.495 20.85 107.683 20.148 109.249 20.148H109.681V18.456C108.115 18.456 107.053 19.14 106.495 20.238V18.636H104.857V28.5H106.495V23.136ZM111.572 28.5H113.21V18.636H111.572V28.5ZM112.418 17.034C113.012 17.034 113.498 16.548 113.498 15.918C113.498 15.288 113.012 14.802 112.418 14.802C111.788 14.802 111.302 15.288 111.302 15.918C111.302 16.548 111.788 17.034 112.418 17.034ZM130.239 28.5H131.859V22.686C131.859 19.86 130.113 18.456 127.863 18.456C126.351 18.456 124.947 19.23 124.371 20.652C123.723 19.176 122.373 18.456 120.753 18.456C119.457 18.456 118.287 19.014 117.639 20.058V18.636H116.001V28.5H117.639V23.064C117.639 20.94 118.773 19.878 120.429 19.878C122.049 19.878 123.129 20.904 123.129 22.92V28.5H124.749V23.064C124.749 20.94 125.883 19.878 127.539 19.878C129.159 19.878 130.239 20.904 130.239 22.92V28.5Z" fill="white"/>
</svg>
